<svg xmlns="http://www.w3.org/2000/svg" viewBox="39.669996948242186 17.709999084472656 495.6600036621094 506.8950004577637"> <svg xmlns="http://www.w3.org/2000/svg" xmlns:xlink="http://www.w3.org/1999/xlink" version="1.1" id="Layer_1" x="142.01" y="87.70999908447266" viewBox="235.5 172.0290069580078 181.216064453125 181.21498107910156" xml:space="preserve" height="290.97830299410754" width="290.9799499511719" preserveAspectRatio="xMinYMin" enable-background="new 0 0 670.078 526.079" style="overflow: visible;"><path class="st0" d="M333.885,291.111l-4.95,4.949l0.083,0.083c4.202,4.203,6.517,9.791,6.517,15.734s-2.314,11.531-6.517,15.734  l-0.081,0.082l-1.416,1.414l-1.414,1.414l-4.949,4.949l-1.414,1.414l-1.414,1.414l-5.046,5.045l-15.731-15.732  c-6.107-6.107-7.896-14.906-5.406-22.609c0.33-1.021,0.735-2.023,1.217-2.996c1.045-2.115,2.429-4.104,4.188-5.863l15.733-15.734  l1.415,1.414l1.414,1.415l2.216,2.216l4.95-4.95l-2.217-2.216l-1.414-1.415l-1.414-1.414l-2.475-2.475l-3.89-3.889l-1.415-1.414  l-2.215-2.217l-1.414-1.414l-1.414-1.414l-4.95-4.95l-1.414-1.414l-1.415-1.415l-0.082-0.082  c-5.523-5.525-12.869-8.567-20.683-8.567s-15.159,3.042-20.684,8.567l-0.083,0.083l4.95,4.95l0.083-0.083  c4.202-4.203,9.79-6.518,15.733-6.518s11.53,2.314,15.733,6.517l0.082,0.083l1.414,1.415l1.414,1.414l4.95,4.949l1.414,1.414  l1.414,1.415l2.216,2.216l1.414,1.414l1.414,1.414l-15.734,15.734c-1.735,1.736-3.717,3.129-5.854,4.191  c-0.973,0.482-1.975,0.898-3.01,1.232c-2.191,0.709-4.498,1.093-6.868,1.093c-5.943,0-11.531-2.314-15.734-6.517L245.4,275.458  l5.045-5.044l-4.95-4.95l-9.995,9.994l20.685,20.684c5.524,5.526,12.87,8.569,20.684,8.569c1.356,0,2.697-0.098,4.019-0.279  c0.726-0.1,1.444-0.227,2.156-0.379c0.75-0.16,1.492-0.346,2.225-0.563c-0.219,0.736-0.402,1.48-0.563,2.23  c-0.151,0.711-0.281,1.426-0.379,2.145c-1.203,8.764,1.553,17.973,8.275,24.695l20.683,20.684l9.995-9.996l1.414-1.414l1.414-1.414  l4.95-4.949l1.414-1.414l1.415-1.414l0.082-0.082c5.524-5.525,8.566-12.871,8.566-20.684c0-7.814-3.043-15.16-8.566-20.684  L333.885,291.111z" style="fill: #e9cf98; fill-opacity: 1;"></path><path class="st0" d="M396.031,229.13c-5.525-5.525-12.871-8.567-20.684-8.567c-1.359,0-2.703,0.098-4.027,0.279  c-0.723,0.099-1.439,0.226-2.148,0.377c-0.75,0.161-1.492,0.346-2.225,0.564c0.219-0.737,0.402-1.482,0.563-2.231  c0.152-0.711,0.281-1.426,0.381-2.145c1.203-8.764-1.553-17.972-8.276-24.695l-20.684-20.683l-9.995,9.995l-1.414,1.415  l-1.414,1.414l-4.95,4.95l-1.414,1.414l-1.415,1.414l-0.082,0.083c-11.404,11.405-11.404,29.961,0.001,41.367l0.083,0.083  l4.949-4.95l-0.082-0.083c-8.676-8.676-8.676-22.792-0.001-31.467l0.083-0.082l1.414-1.415l1.414-1.414l4.949-4.95l1.414-1.414  l1.415-1.415l5.045-5.045l15.733,15.733c6.107,6.107,7.896,14.905,5.404,22.608c-0.33,1.021-0.734,2.022-1.217,2.997  c-1.045,2.115-2.428,4.104-4.187,5.862l-15.734,15.734l-1.414-1.414l-1.415-1.415l-2.215-2.216l-4.95,4.95l2.216,2.216l1.414,1.415  l3.889,3.889l3.89,3.889l1.415,1.414l2.216,2.217l1.415,1.414l1.414,1.415l4.949,4.95l1.414,1.414l1.414,1.414l0.082,0.083  c5.525,5.523,12.87,8.566,20.684,8.566c7.813,0,15.158-3.043,20.683-8.567l0.083-0.082l-4.951-4.95l-0.082,0.082  c-4.201,4.203-9.789,6.518-15.732,6.518s-11.531-2.314-15.732-6.518l-0.083-0.082l-1.414-1.414l-1.414-1.414l-4.95-4.95  l-1.414-1.414l-1.414-1.414l-2.217-2.217l-1.414-1.415l-1.414-1.414l15.734-15.734c1.735-1.736,3.717-3.129,5.854-4.19  c0.97-0.482,1.971-0.897,3.002-1.231c2.193-0.71,4.504-1.095,6.877-1.095c5.943,0,11.531,2.314,15.734,6.518l15.732,15.733  l-5.045,5.045l4.95,4.95l9.995-9.995L396.031,229.13z" style="fill: #e9cf98; fill-opacity: 1;"></path><path class="st1" d="M311.87,256.178l3.89-3.889l3.889-3.889l1.414-1.415l2.217-2.216l1.414-1.415l1.414-1.414l4.95-4.95   l1.414-1.414l1.415-1.415l0.081-0.082c5.524-5.525,8.567-12.87,8.567-20.684s-3.043-15.159-8.567-20.684l-0.083-0.083l-4.949,4.95   l0.083,0.083c4.202,4.202,6.517,9.79,6.517,15.733s-2.314,11.531-6.517,15.733l-0.083,0.083l-1.414,1.414l-1.414,1.414l-4.949,4.95   l-1.414,1.414l-1.415,1.415l-2.216,2.216l-1.414,1.415l-1.415,1.414L297.55,229.13c-1.758-1.759-3.142-3.748-4.188-5.863   c-0.48-0.974-0.886-1.975-1.217-2.996c-2.49-7.704-0.702-16.501,5.404-22.609l15.733-15.733l5.044,5.044l4.95-4.95l-9.994-9.994   l-20.683,20.684c-6.723,6.723-9.479,15.931-8.275,24.694c0.098,0.719,0.229,1.434,0.38,2.146c0.16,0.749,0.343,1.494,0.562,2.23   c-0.73-0.218-1.475-0.403-2.225-0.564c-0.709-0.152-1.424-0.278-2.146-0.377c-1.324-0.181-2.669-0.279-4.028-0.279   c-7.813,0-15.159,3.042-20.684,8.567L235.5,249.813l9.995,9.995l1.415,1.414l1.414,1.414l4.949,4.949l1.414,1.415l1.414,1.414   l0.083,0.083c5.524,5.523,12.87,8.566,20.684,8.566s15.159-3.043,20.683-8.567l0.082-0.082l-4.949-4.95l-0.082,0.083   c-4.203,4.202-9.79,6.517-15.733,6.517s-11.531-2.314-15.734-6.518l-0.082-0.082l-1.414-1.414l-1.414-1.414l-4.95-4.95   l-1.414-1.414l-1.414-1.415l-5.045-5.045l15.733-15.733c4.203-4.203,9.791-6.517,15.734-6.517c2.373,0,4.684,0.385,6.878,1.095   c1.031,0.334,2.031,0.749,3.002,1.231c2.136,1.062,4.117,2.455,5.854,4.19l15.732,15.734l-1.414,1.414l-1.414,1.415l-2.215,2.216   l4.949,4.95l2.215-2.216L311.87,256.178z" style="fill: #e7b662; fill-opacity: 1;"></path><polygon class="st1" points="375.347,295.71 375.347,297.71 375.348,295.71  " style="fill: #e7b662; fill-opacity: 1;"></polygon><path class="st1" d="M406.718,265.464l-1.414-1.415l-1.414-1.414l-4.949-4.95l-1.414-1.414l-1.414-1.414l-0.082-0.082   c-5.525-5.525-12.871-8.567-20.684-8.567c-7.813,0-15.158,3.042-20.683,8.567l-0.083,0.083l4.95,4.95l0.083-0.083   c4.201-4.202,9.789-6.517,15.732-6.517s11.531,2.314,15.734,6.518l0.081,0.082l1.414,1.414l1.414,1.414l4.95,4.949l1.414,1.414   l1.414,1.414l5.045,5.046l-15.734,15.733c-4.201,4.203-9.788,6.518-15.73,6.518h-0.002c-2.373,0-4.684-0.385-6.877-1.096   c-1.031-0.334-2.032-0.749-3.002-1.23c-2.137-1.063-4.118-2.455-5.854-4.191l-15.734-15.733l1.414-1.414l1.414-1.415l2.217-2.215   l-4.95-4.95l-2.216,2.216l-1.415,1.414l-1.414,1.414l-4.95,4.95l-1.414,1.414l-1.414,1.415l-2.217,2.215l-1.414,1.415l-1.414,1.414   l-4.949,4.95l-1.415,1.414l-1.414,1.414l-0.083,0.082c-5.523,5.525-8.566,12.87-8.566,20.684c0,7.813,3.043,15.158,8.568,20.684   l0.081,0.082l4.95-4.949l-0.082-0.082c-4.203-4.203-6.518-9.791-6.518-15.734s2.314-11.531,6.517-15.734l0.083-0.083l1.414-1.414   l1.414-1.414l4.95-4.949l1.414-1.414l1.415-1.415l2.215-2.216l1.415-1.414l1.414-1.414l15.734,15.734   c1.759,1.758,3.142,3.747,4.187,5.862c0.482,0.973,0.887,1.975,1.217,2.996c2.492,7.703,0.703,16.5-5.404,22.609l-15.733,15.732   l-5.044-5.045l-4.951,4.949l9.995,9.996l20.685-20.684c6.723-6.725,9.479-15.932,8.275-24.695c-0.1-0.719-0.229-1.434-0.381-2.145   c-0.16-0.75-0.344-1.494-0.563-2.232c0.732,0.219,1.475,0.404,2.225,0.564c0.709,0.152,1.426,0.279,2.148,0.377   c1.324,0.182,2.668,0.281,4.027,0.281c0,0,0.001,0,0.002,0c7.812,0,15.156-3.043,20.681-8.568l20.685-20.684L406.718,265.464z" style="fill: #e7b662; fill-opacity: 1;"></path></svg> <svg y="397.8549995422363" viewBox="2.5399999618530273 5.809999942779541 355.6600036621094 56.75" x="109.66999694824219" height="56.75" width="355.6600036621094" style="overflow: visible;"><g fill="#e7b662" fill-opacity="1" style=""><path d="M42.28 58.78L42.28 58.78Q47.80 54.46 52.23 49.61Q56.65 44.75 59.75 39.78Q62.84 34.82 64.49 29.88Q66.14 24.95 66.14 20.47L66.14 20.47Q66.14 17.87 65.59 15.62Q65.03 13.36 63.98 11.73Q62.94 10.09 61.46 9.16Q59.99 8.22 58.14 8.22L58.14 8.22L57.54 8.22Q57.00 8.22 56.64 7.90Q56.27 7.59 56.27 7.05L56.27 7.05Q56.27 6.28 56.83 6.05Q57.38 5.81 58.08 5.81L58.08 5.81Q60.40 5.81 62.33 6.89Q64.27 7.97 65.63 9.90Q67.00 11.84 67.76 14.47Q68.52 17.11 68.52 20.19L68.52 20.19Q68.52 25.20 66.79 30.48Q65.06 35.77 61.68 41.12Q58.30 46.46 53.30 51.77Q48.31 57.07 41.80 62.11L41.80 62.11Q41.64 62.24 41.39 62.40Q41.13 62.56 40.78 62.56L40.78 62.56Q40.18 62.56 39.90 62.16Q39.61 61.76 39.61 61.22L39.61 61.22Q39.61 61.00 39.66 60.30Q39.70 59.60 39.77 58.59Q39.83 57.57 39.93 56.35Q40.02 55.13 40.09 53.88Q40.15 52.62 40.20 51.45Q40.24 50.27 40.24 49.35L40.24 49.35Q40.28 42.40 39.20 36.51Q38.12 30.63 35.77 26.31Q33.42 21.99 29.72 19.57Q26.03 17.14 20.79 17.14L20.79 17.14Q16.88 17.14 13.92 18.20Q10.95 19.27 8.95 21.01Q6.95 22.76 5.94 24.96Q4.92 27.17 4.92 29.45L4.92 29.45Q4.92 31.48 5.60 33.09Q6.28 34.69 7.47 35.82Q8.66 36.94 10.28 37.53Q11.90 38.12 13.77 38.12L13.77 38.12Q15.36 38.12 16.66 37.77Q17.96 37.42 18.88 36.99Q19.80 36.56 20.33 36.20Q20.85 35.83 20.92 35.77L20.92 35.77Q21.07 35.61 21.28 35.56Q21.49 35.52 21.68 35.52L21.68 35.52Q22.15 35.52 22.50 35.82Q22.85 36.12 22.85 36.63L22.85 36.63Q22.85 37.23 22.44 37.55L22.44 37.55Q22.38 37.61 21.74 38.07Q21.11 38.53 19.98 39.05Q18.85 39.58 17.27 40.02Q15.68 40.47 13.74 40.47L13.74 40.47Q11.36 40.47 9.30 39.67Q7.24 38.88 5.74 37.42Q4.25 35.96 3.40 33.94Q2.54 31.93 2.54 29.48L2.54 29.48Q2.54 26.76 3.71 24.12Q4.89 21.49 7.19 19.42Q9.49 17.36 12.87 16.11Q16.25 14.85 20.69 14.85L20.69 14.85Q26.44 14.85 30.58 17.34Q34.72 19.84 37.40 24.38Q40.09 28.91 41.37 35.31Q42.66 41.70 42.66 49.51L42.66 49.51Q42.66 51.70 42.56 54.03Q42.47 56.37 42.28 58.78ZM73.63 35.55L73.63 35.55Q73.63 36.75 72.79 37.59Q71.95 38.44 70.74 38.44L70.74 38.44Q69.54 38.44 68.70 37.59Q67.86 36.75 67.86 35.55L67.86 35.55Q67.86 34.94 68.08 34.42Q68.30 33.90 68.70 33.50Q69.09 33.10 69.62 32.88Q70.14 32.66 70.74 32.66L70.74 32.66Q71.35 32.66 71.87 32.88Q72.40 33.10 72.79 33.50Q73.19 33.90 73.41 34.42Q73.63 34.94 73.63 35.55ZM68.49 54.15L68.49 54.15Q68.49 49.58 69.06 45.04L69.06 45.04Q69.13 44.59 69.46 44.26Q69.79 43.93 70.33 43.93L70.33 43.93Q70.81 43.93 71.13 44.29Q71.44 44.66 71.44 45.13L71.44 45.13Q71.44 45.32 71.36 46.27Q71.28 47.23 71.17 48.54Q71.06 49.86 70.98 51.34Q70.90 52.81 70.90 54.05L70.90 54.05Q70.90 55.73 71.24 56.76Q71.57 57.80 72.09 58.37Q72.62 58.94 73.20 59.13Q73.79 59.32 74.33 59.32L74.33 59.32Q75.22 59.32 76.17 58.68Q77.12 58.05 78.12 56.91Q79.12 55.76 80.14 54.16Q81.15 52.56 82.14 50.59L82.14 50.59Q82.30 50.27 82.58 50.10Q82.87 49.92 83.22 49.92L83.22 49.92Q83.73 49.92 84.06 50.31Q84.39 50.69 84.39 51.13L84.39 51.13Q84.39 51.45 84.27 51.67L84.27 51.67Q83.88 52.40 83.31 53.45Q82.74 54.49 82.01 55.61Q81.28 56.72 80.41 57.81Q79.54 58.91 78.55 59.78Q77.57 60.65 76.49 61.19Q75.41 61.73 74.30 61.73L74.30 61.73Q72.87 61.73 71.79 61.13Q70.71 60.52 69.97 59.51Q69.22 58.49 68.86 57.11Q68.49 55.73 68.49 54.15ZM71.86 35.55L71.86 35.55Q71.86 35.10 71.52 34.77Q71.19 34.44 70.74 34.44L70.74 34.44Q70.30 34.44 69.98 34.77Q69.67 35.10 69.67 35.55L69.67 35.55Q69.67 35.99 69.98 36.31Q70.30 36.63 70.74 36.63L70.74 36.63Q71.19 36.63 71.52 36.31Q71.86 35.99 71.86 35.55ZM100.17 51.67L100.17 51.67Q99.82 52.40 99.29 53.40Q98.77 54.40 98.10 55.48Q97.44 56.56 96.61 57.62Q95.79 58.68 94.82 59.53Q93.85 60.37 92.76 60.89Q91.66 61.41 90.42 61.41L90.42 61.41Q88.52 61.41 87.15 60.24Q85.79 59.06 84.84 57.16Q83.88 55.26 83.30 52.83Q82.71 50.40 82.39 47.88Q82.08 45.35 81.96 42.97Q81.85 40.59 81.85 38.75L81.85 38.75Q81.85 36.09 82.03 33.23Q82.20 30.37 82.58 27.64Q82.96 24.91 83.55 22.47Q84.14 20.03 84.95 18.19Q85.76 16.35 86.80 15.27Q87.85 14.19 89.18 14.19L89.18 14.19Q90.23 14.19 91.07 14.68Q91.91 15.17 92.49 16.28Q93.06 17.39 93.37 19.17Q93.69 20.95 93.69 23.52L93.69 23.52Q93.69 26.69 93.02 30.07Q92.36 33.45 91.22 36.88Q90.07 40.31 88.52 43.72Q86.96 47.13 85.19 50.37L85.19 50.37Q85.98 54.40 87.31 56.70Q88.65 59.00 90.52 59.00L90.52 59.00Q91.79 59.00 92.96 58.00Q94.14 57.00 95.12 55.64Q96.10 54.27 96.85 52.86Q97.60 51.45 98.01 50.59L98.01 50.59Q98.17 50.27 98.45 50.10Q98.74 49.92 99.09 49.92L99.09 49.92Q99.63 49.92 99.96 50.31Q100.29 50.69 100.29 51.16L100.29 51.16Q100.29 51.35 100.17 51.67ZM84.27 38.91L84.27 38.91Q84.27 40.94 84.36 42.81Q84.46 44.69 84.61 46.40L84.61 46.40Q85.95 43.83 87.15 40.93Q88.36 38.02 89.28 35.05Q90.20 32.09 90.76 29.15Q91.31 26.22 91.31 23.55L91.31 23.55Q91.31 19.80 90.71 18.19Q90.10 16.57 89.09 16.57L89.09 16.57Q88.42 16.57 87.80 17.49Q87.19 18.41 86.65 20.00Q86.11 21.58 85.66 23.74Q85.22 25.90 84.92 28.37Q84.61 30.85 84.44 33.55Q84.27 36.25 84.27 38.91ZM116.07 51.67L116.07 51.67Q115.72 52.40 115.19 53.40Q114.67 54.40 114.00 55.48Q113.34 56.56 112.51 57.62Q111.69 58.68 110.72 59.53Q109.75 60.37 108.66 60.89Q107.56 61.41 106.32 61.41L106.32 61.41Q104.42 61.41 103.05 60.24Q101.69 59.06 100.74 57.16Q99.79 55.26 99.20 52.83Q98.61 50.40 98.29 47.88Q97.98 45.35 97.86 42.97Q97.75 40.59 97.75 38.75L97.75 38.75Q97.75 36.09 97.93 33.23Q98.10 30.37 98.48 27.64Q98.86 24.91 99.45 22.47Q100.04 20.03 100.85 18.19Q101.66 16.35 102.71 15.27Q103.75 14.19 105.09 14.19L105.09 14.19Q106.13 14.19 106.97 14.68Q107.81 15.17 108.39 16.28Q108.96 17.39 109.27 19.17Q109.59 20.95 109.59 23.52L109.59 23.52Q109.59 26.69 108.93 30.07Q108.26 33.45 107.12 36.88Q105.97 40.31 104.42 43.72Q102.86 47.13 101.09 50.37L101.09 50.37Q101.88 54.40 103.21 56.70Q104.55 59.00 106.42 59.00L106.42 59.00Q107.69 59.00 108.86 58.00Q110.04 57.00 111.02 55.64Q112.00 54.27 112.75 52.86Q113.50 51.45 113.91 50.59L113.91 50.59Q114.07 50.27 114.35 50.10Q114.64 49.92 114.99 49.92L114.99 49.92Q115.53 49.92 115.86 50.31Q116.19 50.69 116.19 51.16L116.19 51.16Q116.19 51.35 116.07 51.67ZM100.17 38.91L100.17 38.91Q100.17 40.94 100.26 42.81Q100.36 44.69 100.52 46.40L100.52 46.40Q101.85 43.83 103.05 40.93Q104.26 38.02 105.18 35.05Q106.10 32.09 106.66 29.15Q107.21 26.22 107.21 23.55L107.21 23.55Q107.21 19.80 106.61 18.19Q106.01 16.57 104.99 16.57L104.99 16.57Q104.32 16.57 103.70 17.49Q103.09 18.41 102.55 20.00Q102.01 21.58 101.56 23.74Q101.12 25.90 100.82 28.37Q100.52 30.85 100.34 33.55Q100.17 36.25 100.17 38.91ZM138.44 51.61L138.44 51.61Q138.32 51.86 137.92 52.67Q137.52 53.48 136.90 54.53Q136.28 55.57 135.46 56.72Q134.63 57.86 133.62 58.81Q132.60 59.76 131.43 60.38Q130.25 61.00 128.95 61.00L128.95 61.00Q127.11 61.00 125.86 59.83Q124.60 58.65 124.03 56.88L124.03 56.88Q122.95 58.68 121.46 59.75Q119.97 60.81 118.48 60.81L118.48 60.81Q117.30 60.81 116.35 60.38Q115.40 59.95 114.73 59.18Q114.07 58.40 113.70 57.35Q113.34 56.30 113.34 55.07L113.34 55.07Q113.34 52.59 114.18 50.70Q115.02 48.81 116.32 47.54Q117.62 46.27 119.19 45.64Q120.76 45.00 122.22 45.00L122.22 45.00Q123.21 45.00 124.03 45.27Q124.86 45.54 125.45 45.86Q126.03 46.18 126.35 46.45Q126.67 46.72 126.70 46.75L126.70 46.75Q127.05 47.16 127.05 47.61L127.05 47.61Q127.05 48.08 126.70 48.45Q126.35 48.81 125.87 48.81L125.87 48.81Q125.37 48.81 125.02 48.46L125.02 48.46Q124.95 48.40 124.73 48.23Q124.51 48.05 124.13 47.86Q123.75 47.67 123.22 47.53Q122.70 47.39 122.03 47.39L122.03 47.39Q121.05 47.39 119.94 47.83Q118.83 48.27 117.91 49.21Q116.99 50.15 116.37 51.56Q115.75 52.97 115.75 54.91L115.75 54.91Q115.75 55.51 115.88 56.13Q116.00 56.75 116.32 57.26Q116.64 57.76 117.18 58.08Q117.72 58.40 118.51 58.40L118.51 58.40Q119.08 58.40 119.83 58.02Q120.57 57.64 121.26 56.84Q121.94 56.05 122.49 54.84Q123.05 53.64 123.27 51.99L123.27 51.99Q123.33 51.54 123.68 51.24Q124.03 50.94 124.51 50.94L124.51 50.94Q124.95 50.94 125.29 51.29Q125.62 51.64 125.65 52.08L125.65 52.08Q125.68 52.69 125.78 53.78Q125.87 54.88 126.21 55.95Q126.54 57.03 127.21 57.83Q127.87 58.62 129.05 58.62L129.05 58.62Q129.81 58.62 130.56 58.21Q131.30 57.80 132.02 57.11Q132.73 56.43 133.38 55.56Q134.03 54.69 134.57 53.80Q135.11 52.91 135.52 52.08Q135.94 51.26 136.22 50.65L136.22 50.65Q136.38 50.31 136.68 50.11Q136.98 49.92 137.33 49.92L137.33 49.92Q137.87 49.92 138.20 50.32Q138.54 50.72 138.54 51.16L138.54 51.16Q138.54 51.38 138.44 51.61ZM211.41 60.30L211.41 60.30Q211.54 60.52 211.54 60.84L211.54 60.84Q211.54 61.32 211.20 61.67Q210.87 62.02 210.33 62.02L210.33 62.02Q209.98 62.02 209.71 61.86Q209.44 61.70 209.28 61.38L209.28 61.38Q208.68 60.21 208.22 58.45Q207.76 56.68 207.43 54.53Q207.09 52.37 206.89 49.88Q206.68 47.39 206.55 44.72L206.55 44.72Q204.17 45.04 201.20 45.42Q198.24 45.80 194.43 46.31L194.43 46.31Q191.76 46.69 189.00 46.97L189.00 46.97Q182.21 54.37 174.70 58.19Q167.20 62.02 159.64 62.02L159.64 62.02Q156.28 62.02 153.82 61.37Q151.36 60.72 149.76 59.91Q148.15 59.10 147.34 58.40Q146.54 57.70 146.47 57.64L146.47 57.64Q146.15 57.32 146.15 56.81L146.15 56.81Q146.15 56.30 146.50 55.95Q146.85 55.61 147.33 55.61L147.33 55.61Q147.87 55.61 148.22 55.99L148.22 55.99Q148.28 56.05 148.98 56.64Q149.68 57.22 151.06 57.89Q152.44 58.56 154.57 59.10Q156.69 59.64 159.61 59.64L159.61 59.64Q163.61 59.64 167.26 58.56Q170.91 57.48 174.16 55.75Q177.42 54.02 180.23 51.80Q183.03 49.58 185.32 47.29L185.32 47.29Q183.07 47.48 180.84 47.58Q178.62 47.67 176.46 47.67L176.46 47.67Q172.21 47.67 168.37 47.19Q164.53 46.72 161.61 45.59Q158.69 44.47 156.96 42.59Q155.23 40.72 155.23 37.93L155.23 37.93Q155.23 36.66 155.76 35.39Q156.28 34.12 157.01 33.09Q157.74 32.06 158.53 31.41Q159.33 30.75 159.90 30.75L159.90 30.75Q160.34 30.75 160.72 31.07Q161.10 31.39 161.10 31.93L161.10 31.93Q161.10 32.21 160.98 32.48Q160.85 32.75 160.60 32.91L160.60 32.91Q160.53 32.98 160.06 33.36Q159.58 33.74 159.04 34.39Q158.50 35.04 158.06 35.94Q157.61 36.85 157.61 37.90L157.61 37.90Q157.61 39.70 158.87 41.09Q160.12 42.47 162.52 43.40Q164.91 44.34 168.40 44.81Q171.89 45.29 176.37 45.29L176.37 45.29Q178.94 45.29 181.80 45.13Q184.65 44.97 187.83 44.66L187.83 44.66Q189.35 42.97 190.52 41.48Q191.70 39.99 192.52 38.82L192.52 38.82Q193.89 36.88 195.38 34.69Q196.87 32.50 198.35 30.25Q199.82 27.99 201.24 25.79Q202.65 23.58 203.89 21.63Q205.12 19.68 206.11 18.07Q207.09 16.47 207.73 15.42L207.73 15.42Q207.92 14.57 208.30 13.85Q208.68 13.14 209.54 13.14L209.54 13.14Q210.01 13.14 210.46 13.54Q210.90 13.93 210.90 14.54L210.90 14.54Q210.90 14.98 210.58 15.49Q210.27 16.00 209.98 16.35L209.98 16.35Q209.89 16.95 209.68 18.92Q209.47 20.88 209.27 23.72Q209.06 26.56 208.92 29.98Q208.77 33.39 208.77 36.88L208.77 36.88Q208.77 38.18 208.77 39.45Q208.77 40.72 208.84 42.02L208.84 42.02Q213.60 41.42 215.79 41.18Q217.98 40.94 218.11 40.94L218.11 40.94Q218.52 40.94 218.91 41.28Q219.31 41.61 219.31 42.15L219.31 42.15Q219.31 42.59 219.01 42.93Q218.71 43.26 218.23 43.32L218.23 43.32Q217.66 43.39 216.90 43.48Q216.14 43.58 215.03 43.70Q213.92 43.83 212.42 44.01Q210.93 44.18 208.93 44.43L208.93 44.43Q209.03 47.04 209.23 49.43Q209.44 51.83 209.74 53.89Q210.04 55.95 210.46 57.60Q210.87 59.26 211.41 60.30ZM194.11 43.93L194.11 43.93Q197.86 43.42 200.92 43.02Q203.98 42.62 206.46 42.31L206.46 42.31Q206.43 40.94 206.41 39.58Q206.39 38.21 206.39 36.82L206.39 36.82Q206.39 32.34 206.55 28.26Q206.71 24.18 207.00 21.17L207.00 21.17Q205.73 23.17 204.19 25.60Q202.65 28.02 201.00 30.55Q199.35 33.07 197.67 35.55Q195.98 38.02 194.46 40.18L194.46 40.18Q193.70 41.26 192.91 42.28Q192.11 43.29 191.32 44.27L191.32 44.27Q192.02 44.21 192.70 44.12Q193.38 44.02 194.11 43.93ZM225.34 57.60L225.34 57.60Q225.85 56.56 226.52 55.30Q227.18 54.05 227.94 52.76Q228.71 51.48 229.55 50.21Q230.39 48.94 231.31 47.80L231.31 47.80Q232.23 46.69 233.17 46.20Q234.10 45.70 234.93 45.70L234.93 45.70Q236.58 45.70 237.37 46.91Q238.16 48.12 238.16 49.89L238.16 49.89Q238.16 50.31 238.12 50.89Q238.07 51.48 238.02 52.15Q237.97 52.81 237.93 53.49Q237.88 54.18 237.88 54.78L237.88 54.78Q237.88 55.54 237.96 56.24Q238.04 56.94 238.26 57.46Q238.48 57.99 238.89 58.29Q239.31 58.59 239.97 58.59L239.97 58.59Q241.18 58.59 242.32 57.65Q243.46 56.72 244.43 55.43Q245.40 54.15 246.11 52.81Q246.83 51.48 247.18 50.65L247.18 50.65Q247.34 50.31 247.64 50.11Q247.94 49.92 248.29 49.92L248.29 49.92Q248.83 49.92 249.16 50.32Q249.49 50.72 249.49 51.16L249.49 51.16Q249.49 51.38 249.40 51.61L249.40 51.61Q249.27 51.86 248.89 52.65Q248.51 53.45 247.89 54.48Q247.27 55.51 246.45 56.67Q245.62 57.83 244.62 58.78Q243.62 59.73 242.46 60.37Q241.31 61.00 240.04 61.00L240.04 61.00Q238.61 61.00 237.72 60.45Q236.83 59.89 236.32 58.99Q235.82 58.08 235.64 56.99Q235.47 55.89 235.47 54.78L235.47 54.78Q235.47 54.30 235.51 53.70Q235.56 53.10 235.64 52.43Q235.72 51.77 235.77 51.10Q235.82 50.43 235.82 49.83L235.82 49.83Q235.82 48.81 235.50 48.45Q235.18 48.08 234.93 48.08L234.93 48.08Q234.42 48.08 233.77 48.67Q233.12 49.26 232.40 50.21Q231.69 51.16 230.94 52.35Q230.20 53.54 229.55 54.72Q228.90 55.89 228.34 56.95Q227.79 58.02 227.47 58.72L227.47 58.72Q226.83 60.05 226.20 60.51Q225.56 60.97 224.90 60.97L224.90 60.97Q223.98 60.97 223.42 60.41Q222.87 59.86 222.87 58.84L222.87 58.84Q222.87 58.62 222.93 57.97Q222.99 57.32 223.09 56.41Q223.18 55.51 223.28 54.46Q223.37 53.42 223.47 52.38Q223.56 51.35 223.63 50.46Q223.69 49.58 223.69 48.97L223.69 48.97Q223.69 48.18 223.63 47.45Q223.56 46.72 223.37 46.56L223.37 46.56Q223.09 46.66 222.36 47.75Q221.63 48.85 220.49 51.61L220.49 51.61Q220.33 51.96 220.01 52.15Q219.69 52.34 219.34 52.34L219.34 52.34Q218.80 52.34 218.49 51.97Q218.17 51.61 218.17 51.13L218.17 51.13Q218.17 50.91 218.26 50.65L218.26 50.65Q219.69 47.26 220.95 45.66Q222.20 44.05 223.44 44.05L223.44 44.05Q224.17 44.05 224.68 44.42Q225.18 44.78 225.48 45.39Q225.79 45.99 225.93 46.72Q226.07 47.45 226.07 48.21L226.07 48.21Q226.07 48.78 225.99 49.99Q225.91 51.19 225.79 52.57Q225.66 53.96 225.55 55.32Q225.44 56.68 225.34 57.60ZM257.75 56.91L257.75 56.91Q256.64 58.72 255.16 59.76Q253.68 60.81 252.19 60.81L252.19 60.81Q250.99 60.81 250.03 60.37Q249.08 59.92 248.38 59.11Q247.69 58.30 247.32 57.16Q246.96 56.02 246.96 54.59L246.96 54.59Q246.96 52.37 247.38 50.65Q247.81 48.94 248.32 47.78Q248.83 46.62 249.27 46.02Q249.72 45.42 249.72 45.42L249.72 45.42Q249.88 45.23 250.11 45.13Q250.35 45.04 250.61 45.04L250.61 45.04Q251.11 45.04 251.45 45.40Q251.78 45.77 251.78 46.24L251.78 46.24Q251.78 46.43 251.70 46.62Q251.62 46.81 251.53 47.00L251.53 47.00Q251.37 47.29 251.02 47.88Q250.67 48.46 250.29 49.42Q249.91 50.37 249.62 51.65Q249.34 52.94 249.34 54.59L249.34 54.59Q249.34 56.46 250.08 57.43Q250.83 58.40 252.19 58.40L252.19 58.40Q252.76 58.40 253.51 58.03Q254.26 57.67 254.97 56.91Q255.68 56.15 256.22 54.97Q256.76 53.80 256.92 52.21L256.92 52.21L257.40 46.75Q257.46 46.27 257.81 45.96Q258.16 45.64 258.64 45.64L258.64 45.64Q259.17 45.64 259.49 46.04Q259.81 46.43 259.81 46.94L259.81 46.94L259.40 52.21Q259.33 52.88 259.44 53.96Q259.56 55.03 259.90 56.08Q260.25 57.13 260.95 57.87Q261.65 58.62 262.79 58.62L262.79 58.62Q263.62 58.62 264.41 58.19Q265.21 57.76 265.94 57.07Q266.67 56.37 267.28 55.49Q267.90 54.62 268.43 53.73Q268.95 52.84 269.33 52.03Q269.71 51.23 269.97 50.65L269.97 50.65Q270.12 50.31 270.41 50.11Q270.70 49.92 271.04 49.92L271.04 49.92Q271.62 49.92 271.93 50.31Q272.25 50.69 272.25 51.13L272.25 51.13Q272.25 51.38 272.16 51.61L272.16 51.61Q272.03 51.86 271.66 52.67Q271.30 53.48 270.71 54.51Q270.12 55.54 269.30 56.68Q268.47 57.83 267.46 58.80Q266.44 59.76 265.25 60.38Q264.06 61.00 262.70 61.00L262.70 61.00Q260.83 61.00 259.59 59.94Q258.35 58.87 257.75 56.91ZM273.49 48.72L273.49 48.72Q273.30 49.23 273.03 49.86Q272.76 50.50 272.41 51.19L272.41 51.19Q272.12 51.73 271.82 52.03Q271.52 52.34 271.04 52.34L271.04 52.34Q270.51 52.34 270.19 52.00Q269.87 51.67 269.87 51.23L269.87 51.23Q269.87 51.07 269.90 50.96Q269.93 50.84 270.06 50.59L270.06 50.59Q270.89 49.00 271.28 47.81Q271.68 46.62 271.93 45.32L271.93 45.32Q271.71 44.59 271.62 44.08Q271.52 43.58 271.52 43.04L271.52 43.04Q271.52 41.99 271.97 41.34Q272.41 40.69 273.20 40.69L273.20 40.69Q273.93 40.69 274.36 41.32Q274.79 41.96 274.79 42.88L274.79 42.88Q274.79 43.39 274.69 43.89Q274.60 44.40 274.44 45.16L274.44 45.16Q275.17 46.97 275.90 48.37Q276.63 49.77 277.20 50.92Q277.77 52.08 278.14 53.10Q278.50 54.11 278.50 55.13L278.50 55.13Q278.50 56.46 277.96 57.67Q277.42 58.87 276.19 59.70L276.19 59.70Q276.35 59.73 276.50 59.73Q276.66 59.73 276.82 59.73L276.82 59.73Q278.63 59.73 280.15 58.91Q281.68 58.08 282.90 56.76Q284.12 55.45 285.07 53.84Q286.03 52.24 286.72 50.65L286.72 50.65Q287.04 49.92 287.61 49.92L287.61 49.92Q288.15 49.92 288.45 50.31Q288.75 50.69 288.75 51.13L288.75 51.13Q288.75 51.38 288.66 51.61L288.66 51.61Q288.31 52.46 287.76 53.56Q287.20 54.65 286.42 55.81Q285.64 56.97 284.63 58.08Q283.61 59.19 282.36 60.06Q281.11 60.94 279.61 61.46Q278.12 61.98 276.35 61.98L276.35 61.98Q274.22 61.98 272.39 61.24Q270.57 60.49 269.43 58.78L269.43 58.78Q269.24 58.49 269.24 58.18L269.24 58.18Q269.24 57.70 269.60 57.34Q269.97 56.97 270.44 56.97L270.44 56.97Q270.95 56.97 271.30 57.32L271.30 57.32Q271.33 57.38 271.52 57.53Q271.71 57.67 271.98 57.84Q272.25 58.02 272.62 58.14Q272.98 58.27 273.36 58.27L273.36 58.27Q274.12 58.27 274.65 57.95Q275.17 57.64 275.49 57.18Q275.81 56.72 275.95 56.19Q276.09 55.67 276.09 55.29L276.09 55.29Q276.09 54.49 275.84 53.70Q275.58 52.91 275.19 52.11Q274.79 51.32 274.33 50.48Q273.87 49.64 273.49 48.72ZM288.95 56.27L288.98 57.76Q289.48 56.68 290.15 55.43Q290.82 54.18 291.58 52.86Q292.34 51.54 293.20 50.24Q294.06 48.94 294.98 47.80L294.98 47.80Q295.90 46.69 296.83 46.20Q297.77 45.70 298.59 45.70L298.59 45.70Q299.42 45.70 300.04 46.04Q300.66 46.37 301.05 46.94Q301.45 47.51 301.66 48.27Q301.86 49.04 301.86 49.92L301.86 49.92Q301.86 50.65 301.72 51.88Q301.58 53.10 301.58 54.43L301.58 54.43Q301.58 55.19 301.66 55.94Q301.74 56.68 301.94 57.27Q302.15 57.86 302.56 58.22Q302.97 58.59 303.64 58.59L303.64 58.59Q304.40 58.59 305.16 58.16Q305.93 57.73 306.66 57.02Q307.39 56.30 308.05 55.43Q308.72 54.56 309.26 53.69Q309.80 52.81 310.21 52.00Q310.62 51.19 310.88 50.65L310.88 50.65Q311.19 49.92 311.99 49.92L311.99 49.92Q312.53 49.92 312.84 50.31Q313.16 50.69 313.16 51.13L313.16 51.13Q313.16 51.38 313.07 51.61L313.07 51.61Q312.94 51.86 312.57 52.65Q312.21 53.45 311.59 54.49Q310.97 55.54 310.15 56.68Q309.32 57.83 308.32 58.80Q307.32 59.76 306.16 60.38Q305.00 61.00 303.74 61.00L303.74 61.00Q302.28 61.00 301.39 60.38Q300.50 59.76 300.01 58.81Q299.51 57.86 299.34 56.68Q299.17 55.51 299.17 54.40L299.17 54.40Q299.17 53.83 299.21 53.18Q299.26 52.53 299.32 51.89Q299.39 51.26 299.43 50.70Q299.48 50.15 299.48 49.77L299.48 49.77Q299.48 48.78 299.21 48.43Q298.94 48.08 298.59 48.08L298.59 48.08Q298.09 48.08 297.44 48.67Q296.78 49.26 296.07 50.21Q295.36 51.16 294.64 52.35Q293.93 53.54 293.26 54.72Q292.60 55.89 292.06 56.95Q291.52 58.02 291.17 58.72L291.17 58.72Q290.50 60.05 289.82 60.51Q289.14 60.97 288.60 60.97L288.60 60.97Q287.61 60.97 287.09 60.19Q286.56 59.41 286.56 58.30L286.56 58.30L286.56 56.30Q286.56 50.31 286.58 44.86Q286.60 39.42 286.74 34.74Q286.88 30.06 287.22 26.26Q287.55 22.47 288.22 19.79Q288.88 17.11 289.91 15.65Q290.94 14.19 292.50 14.19L292.50 14.19Q293.83 14.19 294.75 14.92Q295.67 15.65 296.25 16.90Q296.82 18.15 297.07 19.82Q297.32 21.49 297.32 23.33L297.32 23.33Q297.32 27.07 296.64 30.68Q295.96 34.28 294.82 37.71Q293.67 41.13 292.15 44.39Q290.63 47.64 288.95 50.72L288.95 50.72Q288.95 51.29 288.95 52.08Q288.95 52.88 288.95 53.67Q288.95 54.46 288.95 55.16Q288.95 55.86 288.95 56.27L288.95 56.27ZM288.98 46.05L288.98 46.05Q290.31 43.13 291.41 40.36Q292.50 37.58 293.28 34.82Q294.06 32.06 294.50 29.22Q294.94 26.37 294.94 23.30L294.94 23.30Q294.94 22.79 294.90 21.68Q294.85 20.57 294.61 19.42Q294.37 18.28 293.88 17.42Q293.39 16.57 292.50 16.57L292.50 16.57Q291.80 16.57 291.29 17.50Q290.79 18.44 290.41 20.04Q290.02 21.65 289.77 23.77Q289.52 25.90 289.36 28.28Q289.20 30.66 289.12 33.17Q289.04 35.67 289.01 38.04Q288.98 40.40 288.98 42.47Q288.98 44.53 288.98 46.05ZM318.87 56.56L318.87 56.56Q319.41 57.76 320.65 58.48Q321.89 59.19 323.44 59.19L323.44 59.19Q323.92 59.19 325 59.05Q326.08 58.91 327.49 58.10Q328.90 57.29 330.49 55.54Q332.08 53.80 333.57 50.62L333.57 50.62Q333.73 50.27 334.01 50.10Q334.30 49.92 334.65 49.92L334.65 49.92Q335.19 49.92 335.52 50.31Q335.85 50.69 335.85 51.13L335.85 51.13Q335.85 51.32 335.73 51.64L335.73 51.64Q334.62 53.96 333.25 55.78Q331.89 57.60 330.30 58.89Q328.71 60.18 326.98 60.86Q325.25 61.54 323.44 61.54L323.44 61.54Q322.02 61.54 320.76 61.10Q319.51 60.65 318.60 59.91Q317.70 59.16 317.18 58.22Q316.65 57.29 316.65 56.30L316.65 56.30Q316.65 56.18 316.68 55.95Q316.72 55.73 316.86 55.46Q317.00 55.19 317.27 54.95Q317.54 54.72 318.02 54.56L318.02 54.56Q319.32 54.18 320.41 53.62Q321.51 53.07 322.30 52.37Q323.10 51.67 323.54 50.83Q323.98 49.99 323.98 49.00L323.98 49.00Q323.98 48.15 323.41 47.61Q322.84 47.07 322.02 47.07L322.02 47.07Q321.16 47.07 320.33 47.66Q319.51 48.24 318.73 49.21Q317.95 50.18 317.26 51.43Q316.56 52.69 315.97 54.05Q315.38 55.42 314.94 56.76Q314.49 58.11 314.21 59.26L314.21 59.26Q314.11 59.60 314.00 60.02Q313.89 60.43 313.67 60.79Q313.45 61.16 313.13 61.40Q312.81 61.64 312.30 61.64L312.30 61.64Q311.83 61.64 311.38 61.24Q310.94 60.84 310.94 59.89L310.94 59.89Q310.94 59.70 310.96 58.43Q310.97 57.16 311.00 55.11Q311.04 53.07 311.08 50.42Q311.13 47.77 311.16 44.80Q311.19 41.83 311.26 38.69Q311.32 35.55 311.35 32.56Q311.38 29.58 311.43 26.90Q311.48 24.22 311.51 22.14Q311.54 20.06 311.56 18.74Q311.57 17.42 311.57 17.17L311.57 17.17Q311.57 16.66 311.96 16.33Q312.34 16.00 312.78 16.00L312.78 16.00Q313.29 16.00 313.64 16.33Q313.99 16.66 313.99 17.20L313.99 17.20Q313.99 17.27 313.97 18.46Q313.96 19.65 313.92 21.65Q313.89 23.65 313.84 26.31Q313.80 28.98 313.75 31.98Q313.70 34.98 313.65 38.15Q313.61 41.32 313.56 44.34Q313.51 47.35 313.48 50.08Q313.45 52.81 313.42 54.91L313.42 54.91Q313.92 53.29 314.72 51.50Q315.51 49.70 316.59 48.18Q317.67 46.66 319.02 45.67Q320.37 44.69 322.02 44.69L322.02 44.69Q322.94 44.69 323.73 45.02Q324.52 45.35 325.11 45.94Q325.70 46.53 326.03 47.32Q326.36 48.12 326.36 49.04L326.36 49.04Q326.36 50.46 325.73 51.65Q325.10 52.84 324.05 53.78Q323.00 54.72 321.65 55.42Q320.30 56.11 318.87 56.56ZM358.10 51.61L358.10 51.61Q357.98 51.86 357.58 52.67Q357.18 53.48 356.56 54.53Q355.94 55.57 355.12 56.72Q354.29 57.86 353.28 58.81Q352.26 59.76 351.09 60.38Q349.91 61.00 348.61 61.00L348.61 61.00Q346.77 61.00 345.52 59.83Q344.27 58.65 343.69 56.88L343.69 56.88Q342.61 58.68 341.12 59.75Q339.63 60.81 338.14 60.81L338.14 60.81Q336.97 60.81 336.01 60.38Q335.06 59.95 334.39 59.18Q333.73 58.40 333.36 57.35Q333.00 56.30 333.00 55.07L333.00 55.07Q333.00 52.59 333.84 50.70Q334.68 48.81 335.98 47.54Q337.28 46.27 338.85 45.64Q340.42 45.00 341.88 45.00L341.88 45.00Q342.87 45.00 343.69 45.27Q344.52 45.54 345.11 45.86Q345.69 46.18 346.01 46.45Q346.33 46.72 346.36 46.75L346.36 46.75Q346.71 47.16 346.71 47.61L346.71 47.61Q346.71 48.08 346.36 48.45Q346.01 48.81 345.53 48.81L345.53 48.81Q345.03 48.81 344.68 48.46L344.68 48.46Q344.61 48.40 344.39 48.23Q344.17 48.05 343.79 47.86Q343.41 47.67 342.88 47.53Q342.36 47.39 341.69 47.39L341.69 47.39Q340.71 47.39 339.60 47.83Q338.49 48.27 337.57 49.21Q336.65 50.15 336.03 51.56Q335.41 52.97 335.41 54.91L335.41 54.91Q335.41 55.51 335.54 56.13Q335.66 56.75 335.98 57.26Q336.30 57.76 336.84 58.08Q337.38 58.40 338.17 58.40L338.17 58.40Q338.74 58.40 339.49 58.02Q340.23 57.64 340.92 56.84Q341.60 56.05 342.15 54.84Q342.71 53.64 342.93 51.99L342.93 51.99Q343.00 51.54 343.34 51.24Q343.69 50.94 344.17 50.94L344.17 50.94Q344.61 50.94 344.95 51.29Q345.28 51.64 345.31 52.08L345.31 52.08Q345.34 52.69 345.44 53.78Q345.53 54.88 345.87 55.95Q346.20 57.03 346.87 57.83Q347.53 58.62 348.71 58.62L348.71 58.62Q349.47 58.62 350.22 58.21Q350.96 57.80 351.68 57.11Q352.39 56.43 353.04 55.56Q353.69 54.69 354.23 53.80Q354.77 52.91 355.18 52.08Q355.60 51.26 355.88 50.65L355.88 50.65Q356.04 50.31 356.34 50.11Q356.64 49.92 356.99 49.92L356.99 49.92Q357.53 49.92 357.86 50.32Q358.20 50.72 358.20 51.16L358.20 51.16Q358.20 51.38 358.10 51.61Z" transform="translate(0, 0)"></path></g></svg></svg>